<?xml version="1.0" encoding="UTF-8" standalone="no"?>
<!-- Created with Inkscape (http://www.inkscape.org/) -->

<svg
   xmlns:osb="http://www.openswatchbook.org/uri/2009/osb"
   xmlns:dc="http://purl.org/dc/elements/1.1/"
   xmlns:cc="http://creativecommons.org/ns#"
   xmlns:rdf="http://www.w3.org/1999/02/22-rdf-syntax-ns#"
   xmlns:svg="http://www.w3.org/2000/svg"
   xmlns="http://www.w3.org/2000/svg"
   xmlns:xlink="http://www.w3.org/1999/xlink"
   xmlns:sodipodi="http://sodipodi.sourceforge.net/DTD/sodipodi-0.dtd"
   xmlns:inkscape="http://www.inkscape.org/namespaces/inkscape"
   width="430"
   height="410"
   viewBox="0 0 113.77086 108.47912"
   version="1.1"
   id="svg8"
   inkscape:version="0.92.4 5da689c313, 2019-01-14"
   sodipodi:docname="classic.svg"
   inkscape:export-filename="/home/eddy/Documents/Development/Personal/connect4-slack/src/assets/classic/board.png"
   inkscape:export-xdpi="96"
   inkscape:export-ydpi="96">
  <defs
     id="defs2">
    <linearGradient
       id="linearGradient5800"
       osb:paint="solid">
      <stop
         style="stop-color:#79d9d8;stop-opacity:1;"
         offset="0"
         id="stop5798" />
    </linearGradient>
    <clipPath
       clipPathUnits="userSpaceOnUse"
       id="clipPath141">
      <g
         id="use143"
         inkscape:label="Clip">
        <circle
           style="fill:#ffffff;stroke-width:0.13229167"
           id="circle914"
           cx="9.5250006"
           cy="90.222916"
           r="6.6145835" />
        <circle
           style="fill:#ffffff;stroke-width:0.13229167"
           id="circle916"
           cx="25.664583"
           cy="90.222916"
           r="6.6145835" />
        <circle
           style="fill:#ffffff;stroke-width:0.13229167"
           id="circle918"
           cx="41.804169"
           cy="90.222916"
           r="6.6145835" />
        <circle
           style="fill:#ffffff;stroke-width:0.13229167"
           id="circle920"
           cx="57.943752"
           cy="90.222916"
           r="6.6145835" />
        <circle
           style="fill:#ffffff;stroke-width:0.13229167"
           id="circle922"
           cx="74.083336"
           cy="90.222916"
           r="6.6145835" />
        <circle
           style="fill:#ffffff;stroke-width:0.13229167"
           id="circle924"
           cx="90.222916"
           cy="90.222916"
           r="6.6145835" />
        <circle
           style="fill:#ffffff;stroke-width:0.13229167"
           id="circle926"
           cx="106.3625"
           cy="90.222916"
           r="6.6145835" />
      </g>
    </clipPath>
    <clipPath
       clipPathUnits="userSpaceOnUse"
       id="clipPath141-6">
      <g
         id="use143-2"
         inkscape:label="Clip">
        <circle
           style="fill:#ffffff;stroke-width:0.13229167"
           id="circle945"
           cx="9.5250006"
           cy="90.222916"
           r="6.6145835" />
        <circle
           style="fill:#ffffff;stroke-width:0.13229167"
           id="circle947"
           cx="25.664583"
           cy="90.222916"
           r="6.6145835" />
        <circle
           style="fill:#ffffff;stroke-width:0.13229167"
           id="circle949"
           cx="41.804169"
           cy="90.222916"
           r="6.6145835" />
        <circle
           style="fill:#ffffff;stroke-width:0.13229167"
           id="circle951"
           cx="57.943752"
           cy="90.222916"
           r="6.6145835" />
        <circle
           style="fill:#ffffff;stroke-width:0.13229167"
           id="circle953"
           cx="74.083336"
           cy="90.222916"
           r="6.6145835" />
        <circle
           style="fill:#ffffff;stroke-width:0.13229167"
           id="circle955"
           cx="90.222916"
           cy="90.222916"
           r="6.6145835" />
        <circle
           style="fill:#ffffff;stroke-width:0.13229167"
           id="circle957"
           cx="106.3625"
           cy="90.222916"
           r="6.6145835" />
      </g>
    </clipPath>
    <clipPath
       clipPathUnits="userSpaceOnUse"
       id="clipPath141-6-2">
      <g
         id="use143-2-6"
         inkscape:label="Clip">
        <circle
           style="fill:#ffffff;stroke-width:0.13229167"
           id="circle976"
           cx="9.5250006"
           cy="90.222916"
           r="6.6145835" />
        <circle
           style="fill:#ffffff;stroke-width:0.13229167"
           id="circle978"
           cx="25.664583"
           cy="90.222916"
           r="6.6145835" />
        <circle
           style="fill:#ffffff;stroke-width:0.13229167"
           id="circle980"
           cx="41.804169"
           cy="90.222916"
           r="6.6145835" />
        <circle
           style="fill:#ffffff;stroke-width:0.13229167"
           id="circle982"
           cx="57.943752"
           cy="90.222916"
           r="6.6145835" />
        <circle
           style="fill:#ffffff;stroke-width:0.13229167"
           id="circle984"
           cx="74.083336"
           cy="90.222916"
           r="6.6145835" />
        <circle
           style="fill:#ffffff;stroke-width:0.13229167"
           id="circle986"
           cx="90.222916"
           cy="90.222916"
           r="6.6145835" />
        <circle
           style="fill:#ffffff;stroke-width:0.13229167"
           id="circle988"
           cx="106.3625"
           cy="90.222916"
           r="6.6145835" />
      </g>
    </clipPath>
    <clipPath
       clipPathUnits="userSpaceOnUse"
       id="clipPath141-6-2-5">
      <g
         id="use143-2-6-9"
         inkscape:label="Clip">
        <circle
           style="fill:#ffffff;stroke-width:0.13229167"
           id="circle1007"
           cx="9.5250006"
           cy="90.222916"
           r="6.6145835" />
        <circle
           style="fill:#ffffff;stroke-width:0.13229167"
           id="circle1009"
           cx="25.664583"
           cy="90.222916"
           r="6.6145835" />
        <circle
           style="fill:#ffffff;stroke-width:0.13229167"
           id="circle1011"
           cx="41.804169"
           cy="90.222916"
           r="6.6145835" />
        <circle
           style="fill:#ffffff;stroke-width:0.13229167"
           id="circle1013"
           cx="57.943752"
           cy="90.222916"
           r="6.6145835" />
        <circle
           style="fill:#ffffff;stroke-width:0.13229167"
           id="circle1015"
           cx="74.083336"
           cy="90.222916"
           r="6.6145835" />
        <circle
           style="fill:#ffffff;stroke-width:0.13229167"
           id="circle1017"
           cx="90.222916"
           cy="90.222916"
           r="6.6145835" />
        <circle
           style="fill:#ffffff;stroke-width:0.13229167"
           id="circle1019"
           cx="106.3625"
           cy="90.222916"
           r="6.6145835" />
      </g>
    </clipPath>
    <clipPath
       clipPathUnits="userSpaceOnUse"
       id="clipPath141-6-2-5-9">
      <g
         id="use143-2-6-9-3"
         inkscape:label="Clip">
        <circle
           style="fill:#ffffff;stroke-width:0.13229167"
           id="circle1038"
           cx="9.5250006"
           cy="90.222916"
           r="6.6145835" />
        <circle
           style="fill:#ffffff;stroke-width:0.13229167"
           id="circle1040"
           cx="25.664583"
           cy="90.222916"
           r="6.6145835" />
        <circle
           style="fill:#ffffff;stroke-width:0.13229167"
           id="circle1042"
           cx="41.804169"
           cy="90.222916"
           r="6.6145835" />
        <circle
           style="fill:#ffffff;stroke-width:0.13229167"
           id="circle1044"
           cx="57.943752"
           cy="90.222916"
           r="6.6145835" />
        <circle
           style="fill:#ffffff;stroke-width:0.13229167"
           id="circle1046"
           cx="74.083336"
           cy="90.222916"
           r="6.6145835" />
        <circle
           style="fill:#ffffff;stroke-width:0.13229167"
           id="circle1048"
           cx="90.222916"
           cy="90.222916"
           r="6.6145835" />
        <circle
           style="fill:#ffffff;stroke-width:0.13229167"
           id="circle1050"
           cx="106.3625"
           cy="90.222916"
           r="6.6145835" />
      </g>
    </clipPath>
    <clipPath
       clipPathUnits="userSpaceOnUse"
       id="clipPath141-6-2-5-9-6">
      <g
         inkscape:label="Clip"
         id="use143-2-6-9-3-1">
        <circle
           r="6.6145835"
           cy="90.222916"
           cx="9.5250006"
           id="circle1061"
           style="fill:#ffffff;stroke-width:0.13229167" />
        <circle
           r="6.6145835"
           cy="90.222916"
           cx="25.664583"
           id="circle1063"
           style="fill:#ffffff;stroke-width:0.13229167" />
        <circle
           r="6.6145835"
           cy="90.222916"
           cx="41.804169"
           id="circle1065"
           style="fill:#ffffff;stroke-width:0.13229167" />
        <circle
           r="6.6145835"
           cy="90.222916"
           cx="57.943752"
           id="circle1067"
           style="fill:#ffffff;stroke-width:0.13229167" />
        <circle
           r="6.6145835"
           cy="90.222916"
           cx="74.083336"
           id="circle1069"
           style="fill:#ffffff;stroke-width:0.13229167" />
        <circle
           r="6.6145835"
           cy="90.222916"
           cx="90.222916"
           id="circle1071"
           style="fill:#ffffff;stroke-width:0.13229167" />
        <circle
           r="6.6145835"
           cy="90.222916"
           cx="106.3625"
           id="circle1073"
           style="fill:#ffffff;stroke-width:0.13229167" />
      </g>
    </clipPath>
    <clipPath
       clipPathUnits="userSpaceOnUse"
       id="clipPath428">
      <g
         inkscape:label="Clip"
         id="use430">
        <g
           clip-path="url(#clipPath141)"
           id="g734">
          <g
             id="g732"
             inkscape:label="Clip">
            <circle
               style="fill:#ffffff;stroke-width:0.13229167"
               id="circle718"
               cx="9.5250006"
               cy="90.222916"
               r="6.6145835" />
            <circle
               style="fill:#ffffff;stroke-width:0.13229167"
               id="circle720"
               cx="25.664583"
               cy="90.222916"
               r="6.6145835" />
            <circle
               style="fill:#ffffff;stroke-width:0.13229167"
               id="circle722"
               cx="41.804169"
               cy="90.222916"
               r="6.6145835" />
            <circle
               style="fill:#ffffff;stroke-width:0.13229167"
               id="circle724"
               cx="57.943752"
               cy="90.222916"
               r="6.6145835" />
            <circle
               style="fill:#ffffff;stroke-width:0.13229167"
               id="circle726"
               cx="74.083336"
               cy="90.222916"
               r="6.6145835" />
            <circle
               style="fill:#ffffff;stroke-width:0.13229167"
               id="circle728"
               cx="90.222916"
               cy="90.222916"
               r="6.6145835" />
            <circle
               style="fill:#ffffff;stroke-width:0.13229167"
               id="circle730"
               cx="106.3625"
               cy="90.222916"
               r="6.6145835" />
          </g>
        </g>
        <g
           clip-path="url(#clipPath141-6)"
           id="g752"
           transform="translate(-3.792182e-7,-16.139582)">
          <g
             id="g750"
             inkscape:label="Clip">
            <circle
               style="fill:#ffffff;stroke-width:0.13229167"
               id="circle736"
               cx="9.5250006"
               cy="90.222916"
               r="6.6145835" />
            <circle
               style="fill:#ffffff;stroke-width:0.13229167"
               id="circle738"
               cx="25.664583"
               cy="90.222916"
               r="6.6145835" />
            <circle
               style="fill:#ffffff;stroke-width:0.13229167"
               id="circle740"
               cx="41.804169"
               cy="90.222916"
               r="6.6145835" />
            <circle
               style="fill:#ffffff;stroke-width:0.13229167"
               id="circle742"
               cx="57.943752"
               cy="90.222916"
               r="6.6145835" />
            <circle
               style="fill:#ffffff;stroke-width:0.13229167"
               id="circle744"
               cx="74.083336"
               cy="90.222916"
               r="6.6145835" />
            <circle
               style="fill:#ffffff;stroke-width:0.13229167"
               id="circle746"
               cx="90.222916"
               cy="90.222916"
               r="6.6145835" />
            <circle
               style="fill:#ffffff;stroke-width:0.13229167"
               id="circle748"
               cx="106.3625"
               cy="90.222916"
               r="6.6145835" />
          </g>
        </g>
        <g
           clip-path="url(#clipPath141-6-2)"
           id="g770"
           transform="translate(-3.792182e-7,-32.279165)">
          <g
             id="g768"
             inkscape:label="Clip">
            <circle
               style="fill:#ffffff;stroke-width:0.13229167"
               id="circle754"
               cx="9.5250006"
               cy="90.222916"
               r="6.6145835" />
            <circle
               style="fill:#ffffff;stroke-width:0.13229167"
               id="circle756"
               cx="25.664583"
               cy="90.222916"
               r="6.6145835" />
            <circle
               style="fill:#ffffff;stroke-width:0.13229167"
               id="circle758"
               cx="41.804169"
               cy="90.222916"
               r="6.6145835" />
            <circle
               style="fill:#ffffff;stroke-width:0.13229167"
               id="circle760"
               cx="57.943752"
               cy="90.222916"
               r="6.6145835" />
            <circle
               style="fill:#ffffff;stroke-width:0.13229167"
               id="circle762"
               cx="74.083336"
               cy="90.222916"
               r="6.6145835" />
            <circle
               style="fill:#ffffff;stroke-width:0.13229167"
               id="circle764"
               cx="90.222916"
               cy="90.222916"
               r="6.6145835" />
            <circle
               style="fill:#ffffff;stroke-width:0.13229167"
               id="circle766"
               cx="106.3625"
               cy="90.222916"
               r="6.6145835" />
          </g>
        </g>
        <g
           clip-path="url(#clipPath141-6-2-5)"
           id="g788"
           transform="translate(-3.792182e-7,-48.418749)">
          <g
             id="g786"
             inkscape:label="Clip">
            <circle
               style="fill:#ffffff;stroke-width:0.13229167"
               id="circle772"
               cx="9.5250006"
               cy="90.222916"
               r="6.6145835" />
            <circle
               style="fill:#ffffff;stroke-width:0.13229167"
               id="circle774"
               cx="25.664583"
               cy="90.222916"
               r="6.6145835" />
            <circle
               style="fill:#ffffff;stroke-width:0.13229167"
               id="circle776"
               cx="41.804169"
               cy="90.222916"
               r="6.6145835" />
            <circle
               style="fill:#ffffff;stroke-width:0.13229167"
               id="circle778"
               cx="57.943752"
               cy="90.222916"
               r="6.6145835" />
            <circle
               style="fill:#ffffff;stroke-width:0.13229167"
               id="circle780"
               cx="74.083336"
               cy="90.222916"
               r="6.6145835" />
            <circle
               style="fill:#ffffff;stroke-width:0.13229167"
               id="circle782"
               cx="90.222916"
               cy="90.222916"
               r="6.6145835" />
            <circle
               style="fill:#ffffff;stroke-width:0.13229167"
               id="circle784"
               cx="106.3625"
               cy="90.222916"
               r="6.6145835" />
          </g>
        </g>
        <g
           clip-path="url(#clipPath141-6-2-5-9)"
           id="g806"
           transform="translate(-3.792182e-7,-64.558332)">
          <g
             id="g804"
             inkscape:label="Clip">
            <circle
               style="fill:#ffffff;stroke-width:0.13229167"
               id="circle790"
               cx="9.5250006"
               cy="90.222916"
               r="6.6145835" />
            <circle
               style="fill:#ffffff;stroke-width:0.13229167"
               id="circle792"
               cx="25.664583"
               cy="90.222916"
               r="6.6145835" />
            <circle
               style="fill:#ffffff;stroke-width:0.13229167"
               id="circle794"
               cx="41.804169"
               cy="90.222916"
               r="6.6145835" />
            <circle
               style="fill:#ffffff;stroke-width:0.13229167"
               id="circle796"
               cx="57.943752"
               cy="90.222916"
               r="6.6145835" />
            <circle
               style="fill:#ffffff;stroke-width:0.13229167"
               id="circle798"
               cx="74.083336"
               cy="90.222916"
               r="6.6145835" />
            <circle
               style="fill:#ffffff;stroke-width:0.13229167"
               id="circle800"
               cx="90.222916"
               cy="90.222916"
               r="6.6145835" />
            <circle
               style="fill:#ffffff;stroke-width:0.13229167"
               id="circle802"
               cx="106.3625"
               cy="90.222916"
               r="6.6145835" />
          </g>
        </g>
        <g
           clip-path="url(#clipPath141-6-2-5-9-6)"
           id="g824"
           transform="translate(-3.792182e-7,-80.697916)">
          <g
             id="g822"
             inkscape:label="Clip">
            <circle
               style="fill:#ffffff;stroke-width:0.13229167"
               id="circle808"
               cx="9.5250006"
               cy="90.222916"
               r="6.6145835" />
            <circle
               style="fill:#ffffff;stroke-width:0.13229167"
               id="circle810"
               cx="25.664583"
               cy="90.222916"
               r="6.6145835" />
            <circle
               style="fill:#ffffff;stroke-width:0.13229167"
               id="circle812"
               cx="41.804169"
               cy="90.222916"
               r="6.6145835" />
            <circle
               style="fill:#ffffff;stroke-width:0.13229167"
               id="circle814"
               cx="57.943752"
               cy="90.222916"
               r="6.6145835" />
            <circle
               style="fill:#ffffff;stroke-width:0.13229167"
               id="circle816"
               cx="74.083336"
               cy="90.222916"
               r="6.6145835" />
            <circle
               style="fill:#ffffff;stroke-width:0.13229167"
               id="circle818"
               cx="90.222916"
               cy="90.222916"
               r="6.6145835" />
            <circle
               style="fill:#ffffff;stroke-width:0.13229167"
               id="circle820"
               cx="106.3625"
               cy="90.222916"
               r="6.6145835" />
          </g>
        </g>
      </g>
    </clipPath>
    <linearGradient
       inkscape:collect="always"
       xlink:href="#linearGradient5800"
       id="linearGradient5802"
       x1="-15.156846"
       y1="78.959229"
       x2="-1.1906253"
       y2="78.959229"
       gradientUnits="userSpaceOnUse"
       gradientTransform="matrix(1.1024015,0,0,1.1753545,18.271154,-2.3175871)" />
  </defs>
  <sodipodi:namedview
     id="base"
     pagecolor="#ffffff"
     bordercolor="#666666"
     borderopacity="1.0"
     inkscape:pageopacity="0.0"
     inkscape:pageshadow="2"
     inkscape:zoom="1.979899"
     inkscape:cx="114.07286"
     inkscape:cy="195.24825"
     inkscape:document-units="px"
     inkscape:current-layer="layer9"
     showgrid="false"
     units="px"
     inkscape:window-width="2548"
     inkscape:window-height="1345"
     inkscape:window-x="0"
     inkscape:window-y="0"
     inkscape:window-maximized="0"
     inkscape:pagecheckerboard="true" />
  <metadata
     id="metadata5">
    <rdf:RDF>
      <cc:Work
         rdf:about="">
        <dc:format>image/svg+xml</dc:format>
        <dc:type
           rdf:resource="http://purl.org/dc/dcmitype/StillImage" />
        <dc:title></dc:title>
      </cc:Work>
    </rdf:RDF>
  </metadata>
  <g
     inkscape:label="board"
     inkscape:groupmode="layer"
     id="layer1"
     transform="translate(0,-188.52086)"
     style="display:inline"
     sodipodi:insensitive="true">
    <path
       style="opacity:1;fill:#0000ff;fill-opacity:1;stroke:none;stroke-width:4.91952038;stroke-miterlimit:4;stroke-dasharray:none;stroke-opacity:1;paint-order:markers fill stroke"
       d="M 0,45 V 415 H 430 V 45 Z M 35,55 A 25.000003,25.000003 0 0 1 60,80 25.000003,25.000003 0 0 1 35,105 25.000003,25.000003 0 0 1 10,80 25.000003,25.000003 0 0 1 35,55 Z m 60,0 A 25.000003,25.000003 0 0 1 120,80 25.000003,25.000003 0 0 1 95,105 25.000003,25.000003 0 0 1 70,80 25.000003,25.000003 0 0 1 95,55 Z m 60,0 a 25.000003,25.000003 0 0 1 25,25 25.000003,25.000003 0 0 1 -25,25 25.000003,25.000003 0 0 1 -25,-25 25.000003,25.000003 0 0 1 25,-25 z m 60,0 a 25.000003,25.000003 0 0 1 25,25 25.000003,25.000003 0 0 1 -25,25 25.000003,25.000003 0 0 1 -25,-25 25.000003,25.000003 0 0 1 25,-25 z m 60,0 a 25.000003,25.000003 0 0 1 25,25 25.000003,25.000003 0 0 1 -25,25 25.000003,25.000003 0 0 1 -25,-25 25.000003,25.000003 0 0 1 25,-25 z m 60,0 a 25.000003,25.000003 0 0 1 25,25 25.000003,25.000003 0 0 1 -25,25 25.000003,25.000003 0 0 1 -25,-25 25.000003,25.000003 0 0 1 25,-25 z m 60,0 a 25.000003,25.000003 0 0 1 25,25 25.000003,25.000003 0 0 1 -25,25 25.000003,25.000003 0 0 1 -25,-25 25.000003,25.000003 0 0 1 25,-25 z M 35,115 a 25.000003,25.000003 0 0 1 25,25 25.000003,25.000003 0 0 1 -25,25 25.000003,25.000003 0 0 1 -25,-25 25.000003,25.000003 0 0 1 25,-25 z m 60,0 a 25.000003,25.000003 0 0 1 25,25 25.000003,25.000003 0 0 1 -25,25 25.000003,25.000003 0 0 1 -25,-25 25.000003,25.000003 0 0 1 25,-25 z m 60,0 a 25.000003,25.000003 0 0 1 25,25 25.000003,25.000003 0 0 1 -25,25 25.000003,25.000003 0 0 1 -25,-25 25.000003,25.000003 0 0 1 25,-25 z m 60,0 a 25.000003,25.000003 0 0 1 25,25 25.000003,25.000003 0 0 1 -25,25 25.000003,25.000003 0 0 1 -25,-25 25.000003,25.000003 0 0 1 25,-25 z m 60,0 a 25.000003,25.000003 0 0 1 25,25 25.000003,25.000003 0 0 1 -25,25 25.000003,25.000003 0 0 1 -25,-25 25.000003,25.000003 0 0 1 25,-25 z m 60,0 a 25.000003,25.000003 0 0 1 25,25 25.000003,25.000003 0 0 1 -25,25 25.000003,25.000003 0 0 1 -25,-25 25.000003,25.000003 0 0 1 25,-25 z m 60,0 a 25.000003,25.000003 0 0 1 25,25 25.000003,25.000003 0 0 1 -25,25 25.000003,25.000003 0 0 1 -25,-25 25.000003,25.000003 0 0 1 25,-25 z M 35,175 a 25.000003,25.000003 0 0 1 25,25 25.000003,25.000003 0 0 1 -25,25 25.000003,25.000003 0 0 1 -25,-25 25.000003,25.000003 0 0 1 25,-25 z m 60,0 a 25.000003,25.000003 0 0 1 25,25 25.000003,25.000003 0 0 1 -25,25 25.000003,25.000003 0 0 1 -25,-25 25.000003,25.000003 0 0 1 25,-25 z m 60,0 a 25.000003,25.000003 0 0 1 25,25 25.000003,25.000003 0 0 1 -25,25 25.000003,25.000003 0 0 1 -25,-25 25.000003,25.000003 0 0 1 25,-25 z m 60,0 a 25.000003,25.000003 0 0 1 25,25 25.000003,25.000003 0 0 1 -25,25 25.000003,25.000003 0 0 1 -25,-25 25.000003,25.000003 0 0 1 25,-25 z m 60,0 a 25.000003,25.000003 0 0 1 25,25 25.000003,25.000003 0 0 1 -25,25 25.000003,25.000003 0 0 1 -25,-25 25.000003,25.000003 0 0 1 25,-25 z m 60,0 a 25.000003,25.000003 0 0 1 25,25 25.000003,25.000003 0 0 1 -25,25 25.000003,25.000003 0 0 1 -25,-25 25.000003,25.000003 0 0 1 25,-25 z m 60,0 a 25.000003,25.000003 0 0 1 25,25 25.000003,25.000003 0 0 1 -25,25 25.000003,25.000003 0 0 1 -25,-25 25.000003,25.000003 0 0 1 25,-25 z M 35,235 a 25.000003,25.000003 0 0 1 25,25 25.000003,25.000003 0 0 1 -25,25 25.000003,25.000003 0 0 1 -25,-25 25.000003,25.000003 0 0 1 25,-25 z m 60,0 a 25.000003,25.000003 0 0 1 25,25 25.000003,25.000003 0 0 1 -25,25 25.000003,25.000003 0 0 1 -25,-25 25.000003,25.000003 0 0 1 25,-25 z m 60,0 a 25.000003,25.000003 0 0 1 25,25 25.000003,25.000003 0 0 1 -25,25 25.000003,25.000003 0 0 1 -25,-25 25.000003,25.000003 0 0 1 25,-25 z m 60,0 a 25.000003,25.000003 0 0 1 25,25 25.000003,25.000003 0 0 1 -25,25 25.000003,25.000003 0 0 1 -25,-25 25.000003,25.000003 0 0 1 25,-25 z m 60,0 a 25.000003,25.000003 0 0 1 25,25 25.000003,25.000003 0 0 1 -25,25 25.000003,25.000003 0 0 1 -25,-25 25.000003,25.000003 0 0 1 25,-25 z m 60,0 a 25.000003,25.000003 0 0 1 25,25 25.000003,25.000003 0 0 1 -25,25 25.000003,25.000003 0 0 1 -25,-25 25.000003,25.000003 0 0 1 25,-25 z m 60,0 a 25.000003,25.000003 0 0 1 25,25 25.000003,25.000003 0 0 1 -25,25 25.000003,25.000003 0 0 1 -25,-25 25.000003,25.000003 0 0 1 25,-25 z M 35,295 a 25.000003,25.000003 0 0 1 25,25 25.000003,25.000003 0 0 1 -25,25 25.000003,25.000003 0 0 1 -25,-25 25.000003,25.000003 0 0 1 25,-25 z m 60,0 a 25.000003,25.000003 0 0 1 25,25 25.000003,25.000003 0 0 1 -25,25 25.000003,25.000003 0 0 1 -25,-25 25.000003,25.000003 0 0 1 25,-25 z m 60,0 a 25.000003,25.000003 0 0 1 25,25 25.000003,25.000003 0 0 1 -25,25 25.000003,25.000003 0 0 1 -25,-25 25.000003,25.000003 0 0 1 25,-25 z m 60,0 a 25.000003,25.000003 0 0 1 25,25 25.000003,25.000003 0 0 1 -25,25 25.000003,25.000003 0 0 1 -25,-25 25.000003,25.000003 0 0 1 25,-25 z m 60,0 a 25.000003,25.000003 0 0 1 25,25 25.000003,25.000003 0 0 1 -25,25 25.000003,25.000003 0 0 1 -25,-25 25.000003,25.000003 0 0 1 25,-25 z m 60,0 a 25.000003,25.000003 0 0 1 25,25 25.000003,25.000003 0 0 1 -25,25 25.000003,25.000003 0 0 1 -25,-25 25.000003,25.000003 0 0 1 25,-25 z m 60,0 a 25.000003,25.000003 0 0 1 25,25 25.000003,25.000003 0 0 1 -25,25 25.000003,25.000003 0 0 1 -25,-25 25.000003,25.000003 0 0 1 25,-25 z M 35,355 a 25.000003,25.000003 0 0 1 25,25 25.000003,25.000003 0 0 1 -25,25 25.000003,25.000003 0 0 1 -25,-25 25.000003,25.000003 0 0 1 25,-25 z m 60,0 a 25.000003,25.000003 0 0 1 25,25 25.000003,25.000003 0 0 1 -25,25 25.000003,25.000003 0 0 1 -25,-25 25.000003,25.000003 0 0 1 25,-25 z m 60,0 a 25.000003,25.000003 0 0 1 25,25 25.000003,25.000003 0 0 1 -25,25 25.000003,25.000003 0 0 1 -25,-25 25.000003,25.000003 0 0 1 25,-25 z m 60,0 a 25.000003,25.000003 0 0 1 25,25 25.000003,25.000003 0 0 1 -25,25 25.000003,25.000003 0 0 1 -25,-25 25.000003,25.000003 0 0 1 25,-25 z m 60,0 a 25.000003,25.000003 0 0 1 25,25 25.000003,25.000003 0 0 1 -25,25 25.000003,25.000003 0 0 1 -25,-25 25.000003,25.000003 0 0 1 25,-25 z m 60,0 a 25.000003,25.000003 0 0 1 25,25 25.000003,25.000003 0 0 1 -25,25 25.000003,25.000003 0 0 1 -25,-25 25.000003,25.000003 0 0 1 25,-25 z m 60,0 a 25.000003,25.000003 0 0 1 25,25 25.000003,25.000003 0 0 1 -25,25 25.000003,25.000003 0 0 1 -25,-25 25.000003,25.000003 0 0 1 25,-25 z"
       transform="matrix(0.26458331,0,0,0.26458331,0,187.19794)"
       id="rect144"
       inkscape:connector-curvature="0" />
  </g>
  <g
     inkscape:groupmode="layer"
     id="layer2"
     inkscape:label="holes"
     style="display:none"
     sodipodi:insensitive="true"
     transform="translate(0,-1.3229166)">
    <circle
       style="opacity:1;fill:#ffffff;fill-opacity:1;stroke:none;stroke-width:0.5859732;stroke-miterlimit:4;stroke-dasharray:none;stroke-opacity:1;paint-order:markers fill stroke"
       id="path151"
       cx="9.260416"
       cy="21.166664"
       r="6.614583"
       inkscape:tile-cx="9.2604189"
       inkscape:tile-cy="100.54169"
       inkscape:tile-w="13.22917"
       inkscape:tile-h="13.22917"
       inkscape:tile-x0="2.6458338"
       inkscape:tile-y0="93.927103" />
    <use
       x="0"
       y="0"
       inkscape:tiled-clone-of="#path151"
       xlink:href="#path151"
       transform="translate(0,15.875004)"
       id="use533"
       width="100%"
       height="100%" />
    <use
       x="0"
       y="0"
       inkscape:tiled-clone-of="#path151"
       xlink:href="#path151"
       transform="translate(0,31.750008)"
       id="use535"
       width="100%"
       height="100%" />
    <use
       x="0"
       y="0"
       inkscape:tiled-clone-of="#path151"
       xlink:href="#path151"
       transform="translate(0,47.625012)"
       id="use537"
       width="100%"
       height="100%" />
    <use
       x="0"
       y="0"
       inkscape:tiled-clone-of="#path151"
       xlink:href="#path151"
       transform="translate(0,63.500016)"
       id="use539"
       width="100%"
       height="100%" />
    <use
       x="0"
       y="0"
       inkscape:tiled-clone-of="#path151"
       xlink:href="#path151"
       transform="translate(0,79.37502)"
       id="use541"
       width="100%"
       height="100%" />
    <use
       x="0"
       y="0"
       inkscape:tiled-clone-of="#path151"
       xlink:href="#path151"
       transform="translate(15.875004)"
       id="use543"
       width="100%"
       height="100%" />
    <use
       x="0"
       y="0"
       inkscape:tiled-clone-of="#path151"
       xlink:href="#path151"
       transform="translate(15.875004,15.875004)"
       id="use545"
       width="100%"
       height="100%" />
    <use
       x="0"
       y="0"
       inkscape:tiled-clone-of="#path151"
       xlink:href="#path151"
       transform="translate(15.875004,31.750008)"
       id="use547"
       width="100%"
       height="100%" />
    <use
       x="0"
       y="0"
       inkscape:tiled-clone-of="#path151"
       xlink:href="#path151"
       transform="translate(15.875004,47.625012)"
       id="use549"
       width="100%"
       height="100%" />
    <use
       x="0"
       y="0"
       inkscape:tiled-clone-of="#path151"
       xlink:href="#path151"
       transform="translate(15.875004,63.500016)"
       id="use551"
       width="100%"
       height="100%" />
    <use
       x="0"
       y="0"
       inkscape:tiled-clone-of="#path151"
       xlink:href="#path151"
       transform="translate(15.875004,79.37502)"
       id="use553"
       width="100%"
       height="100%" />
    <use
       x="0"
       y="0"
       inkscape:tiled-clone-of="#path151"
       xlink:href="#path151"
       transform="translate(31.750008)"
       id="use555"
       width="100%"
       height="100%" />
    <use
       x="0"
       y="0"
       inkscape:tiled-clone-of="#path151"
       xlink:href="#path151"
       transform="translate(31.750008,15.875004)"
       id="use557"
       width="100%"
       height="100%" />
    <use
       x="0"
       y="0"
       inkscape:tiled-clone-of="#path151"
       xlink:href="#path151"
       transform="translate(31.750008,31.750008)"
       id="use559"
       width="100%"
       height="100%" />
    <use
       x="0"
       y="0"
       inkscape:tiled-clone-of="#path151"
       xlink:href="#path151"
       transform="translate(31.750008,47.625012)"
       id="use561"
       width="100%"
       height="100%" />
    <use
       x="0"
       y="0"
       inkscape:tiled-clone-of="#path151"
       xlink:href="#path151"
       transform="translate(31.750008,63.500016)"
       id="use563"
       width="100%"
       height="100%" />
    <use
       x="0"
       y="0"
       inkscape:tiled-clone-of="#path151"
       xlink:href="#path151"
       transform="translate(31.750008,79.37502)"
       id="use565"
       width="100%"
       height="100%" />
    <use
       x="0"
       y="0"
       inkscape:tiled-clone-of="#path151"
       xlink:href="#path151"
       transform="translate(47.625012)"
       id="use567"
       width="100%"
       height="100%" />
    <use
       x="0"
       y="0"
       inkscape:tiled-clone-of="#path151"
       xlink:href="#path151"
       transform="translate(47.625012,15.875004)"
       id="use569"
       width="100%"
       height="100%" />
    <use
       x="0"
       y="0"
       inkscape:tiled-clone-of="#path151"
       xlink:href="#path151"
       transform="translate(47.625012,31.750008)"
       id="use571"
       width="100%"
       height="100%" />
    <use
       x="0"
       y="0"
       inkscape:tiled-clone-of="#path151"
       xlink:href="#path151"
       transform="translate(47.625012,47.625012)"
       id="use573"
       width="100%"
       height="100%" />
    <use
       x="0"
       y="0"
       inkscape:tiled-clone-of="#path151"
       xlink:href="#path151"
       transform="translate(47.625012,63.500016)"
       id="use575"
       width="100%"
       height="100%" />
    <use
       x="0"
       y="0"
       inkscape:tiled-clone-of="#path151"
       xlink:href="#path151"
       transform="translate(47.625012,79.37502)"
       id="use577"
       width="100%"
       height="100%" />
    <use
       x="0"
       y="0"
       inkscape:tiled-clone-of="#path151"
       xlink:href="#path151"
       transform="translate(63.500016)"
       id="use579"
       width="100%"
       height="100%" />
    <use
       x="0"
       y="0"
       inkscape:tiled-clone-of="#path151"
       xlink:href="#path151"
       transform="translate(63.500016,15.875004)"
       id="use581"
       width="100%"
       height="100%" />
    <use
       x="0"
       y="0"
       inkscape:tiled-clone-of="#path151"
       xlink:href="#path151"
       transform="translate(63.500016,31.750008)"
       id="use583"
       width="100%"
       height="100%" />
    <use
       x="0"
       y="0"
       inkscape:tiled-clone-of="#path151"
       xlink:href="#path151"
       transform="translate(63.500016,47.625012)"
       id="use585"
       width="100%"
       height="100%" />
    <use
       x="0"
       y="0"
       inkscape:tiled-clone-of="#path151"
       xlink:href="#path151"
       transform="translate(63.500016,63.500016)"
       id="use587"
       width="100%"
       height="100%" />
    <use
       x="0"
       y="0"
       inkscape:tiled-clone-of="#path151"
       xlink:href="#path151"
       transform="translate(63.500016,79.37502)"
       id="use589"
       width="100%"
       height="100%" />
    <use
       x="0"
       y="0"
       inkscape:tiled-clone-of="#path151"
       xlink:href="#path151"
       transform="translate(79.37502)"
       id="use591"
       width="100%"
       height="100%" />
    <use
       x="0"
       y="0"
       inkscape:tiled-clone-of="#path151"
       xlink:href="#path151"
       transform="translate(79.37502,15.875004)"
       id="use593"
       width="100%"
       height="100%" />
    <use
       x="0"
       y="0"
       inkscape:tiled-clone-of="#path151"
       xlink:href="#path151"
       transform="translate(79.37502,31.750008)"
       id="use595"
       width="100%"
       height="100%" />
    <use
       x="0"
       y="0"
       inkscape:tiled-clone-of="#path151"
       xlink:href="#path151"
       transform="translate(79.37502,47.625012)"
       id="use597"
       width="100%"
       height="100%" />
    <use
       x="0"
       y="0"
       inkscape:tiled-clone-of="#path151"
       xlink:href="#path151"
       transform="translate(79.37502,63.500016)"
       id="use599"
       width="100%"
       height="100%" />
    <use
       x="0"
       y="0"
       inkscape:tiled-clone-of="#path151"
       xlink:href="#path151"
       transform="translate(79.37502,79.37502)"
       id="use601"
       width="100%"
       height="100%" />
    <use
       x="0"
       y="0"
       inkscape:tiled-clone-of="#path151"
       xlink:href="#path151"
       transform="translate(95.250024)"
       id="use603"
       width="100%"
       height="100%" />
    <use
       x="0"
       y="0"
       inkscape:tiled-clone-of="#path151"
       xlink:href="#path151"
       transform="translate(95.250024,15.875004)"
       id="use605"
       width="100%"
       height="100%" />
    <use
       x="0"
       y="0"
       inkscape:tiled-clone-of="#path151"
       xlink:href="#path151"
       transform="translate(95.250024,31.750008)"
       id="use607"
       width="100%"
       height="100%" />
    <use
       x="0"
       y="0"
       inkscape:tiled-clone-of="#path151"
       xlink:href="#path151"
       transform="translate(95.250024,47.625012)"
       id="use609"
       width="100%"
       height="100%" />
    <use
       x="0"
       y="0"
       inkscape:tiled-clone-of="#path151"
       xlink:href="#path151"
       transform="translate(95.250024,63.500016)"
       id="use611"
       width="100%"
       height="100%" />
    <use
       x="0"
       y="0"
       inkscape:tiled-clone-of="#path151"
       xlink:href="#path151"
       transform="translate(95.250024,79.37502)"
       id="use613"
       width="100%"
       height="100%" />
  </g>
  <g
     inkscape:groupmode="layer"
     id="layer6"
     inkscape:label="numbers"
     style="display:inline"
     transform="translate(0,8.7312494)"
     sodipodi:insensitive="true">
    <text
       xml:space="preserve"
       style="font-style:normal;font-weight:normal;font-size:10.58333397px;line-height:1.25;font-family:sans-serif;letter-spacing:0px;word-spacing:0px;fill:#4587f5;fill-opacity:1;stroke:none;stroke-width:0.26458335;paint-order:fill markers stroke"
       x="5.7074418"
       y="0.52916855"
       id="text1197"><tspan
         sodipodi:role="line"
         id="tspan1195"
         x="5.7074418"
         y="0.52916855"
         style="fill:#4587f5;fill-opacity:1;stroke-width:0.26458335;paint-order:fill markers stroke">1</tspan></text>
    <text
       xml:space="preserve"
       style="font-style:normal;font-weight:normal;font-size:10.58333397px;line-height:1.25;font-family:sans-serif;letter-spacing:0px;word-spacing:0px;fill:#4587f5;fill-opacity:1;stroke:none;stroke-width:0.26458335"
       x="22.111609"
       y="0.52916855"
       id="text1201"><tspan
         sodipodi:role="line"
         id="tspan1199"
         x="22.111609"
         y="0.52916855"
         style="fill:#4587f5;fill-opacity:1;stroke-width:0.26458335">2</tspan></text>
    <text
       xml:space="preserve"
       style="font-style:normal;font-weight:normal;font-size:10.58333397px;line-height:1.25;font-family:sans-serif;letter-spacing:0px;word-spacing:0px;fill:#4587f5;fill-opacity:1;stroke:none;stroke-width:0.26458335"
       x="37.98661"
       y="0.37930623"
       id="text1205"><tspan
         sodipodi:role="line"
         id="tspan1203"
         x="37.98661"
         y="0.37930623"
         style="fill:#4587f5;fill-opacity:1;stroke-width:0.26458335">3</tspan></text>
    <text
       xml:space="preserve"
       style="font-style:normal;font-weight:normal;font-size:10.58333397px;line-height:1.25;font-family:sans-serif;letter-spacing:0px;word-spacing:0px;fill:#4587f5;fill-opacity:1;stroke:none;stroke-width:0.26458335"
       x="53.483631"
       y="0.52916855"
       id="text1209"><tspan
         sodipodi:role="line"
         id="tspan1207"
         x="53.483631"
         y="0.52916855"
         style="fill:#4587f5;fill-opacity:1;stroke-width:0.26458335">4</tspan></text>
    <text
       xml:space="preserve"
       style="font-style:normal;font-weight:normal;font-size:10.58333397px;line-height:1.25;font-family:sans-serif;letter-spacing:0px;word-spacing:0px;fill:#4587f5;fill-opacity:1;stroke:none;stroke-width:0.26458335"
       x="70.00119"
       y="0.37930623"
       id="text1213"><tspan
         sodipodi:role="line"
         id="tspan1211"
         x="70.00119"
         y="0.37930623"
         style="fill:#4587f5;fill-opacity:1;stroke-width:0.26458335">5</tspan></text>
    <text
       xml:space="preserve"
       style="font-style:normal;font-weight:normal;font-size:10.58333397px;line-height:1.25;font-family:sans-serif;letter-spacing:0px;word-spacing:0px;fill:#4587f5;fill-opacity:1;stroke:none;stroke-width:0.26458335"
       x="85.195831"
       y="0.37930623"
       id="text1217"><tspan
         sodipodi:role="line"
         id="tspan1215"
         x="85.195831"
         y="0.37930623"
         style="fill:#4587f5;fill-opacity:1;stroke-width:0.26458335">6</tspan></text>
    <text
       xml:space="preserve"
       style="font-style:normal;font-weight:normal;font-size:10.58333397px;line-height:1.25;font-family:sans-serif;letter-spacing:0px;word-spacing:0px;fill:#4587f5;fill-opacity:1;stroke:none;stroke-width:0.26458335"
       x="101.03302"
       y="0.52916855"
       id="text1221"><tspan
         sodipodi:role="line"
         id="tspan1219"
         x="101.03302"
         y="0.52916855"
         style="fill:#4587f5;fill-opacity:1;stroke-width:0.26458335">7</tspan></text>
  </g>
  <g
     inkscape:groupmode="layer"
     id="layer4"
     inkscape:label="player1"
     style="display:inline"
     transform="translate(0,8.7312494)"
     sodipodi:insensitive="true">
    <circle
       style="fill:#ff0000;stroke-width:0.16194122"
       id="path1189"
       cx="9.260417"
       cy="90.487488"
       r="6.6145835" />
  </g>
  <g
     inkscape:groupmode="layer"
     id="layer5"
     inkscape:label="player2"
     style="display:inline"
     transform="translate(0,8.7312494)"
     sodipodi:insensitive="true">
    <circle
       style="fill:#ffd42a;stroke-width:0.1649051"
       id="path1192"
       cx="25.135414"
       cy="90.487488"
       r="6.6145835" />
  </g>
  <g
     inkscape:groupmode="layer"
     id="layer8"
     inkscape:label="latest_move"
     style="display:inline"
     transform="translate(0,8.7312494)"
     sodipodi:insensitive="true">
    <ellipse
       style="opacity:1;fill:none;stroke:url(#linearGradient5802);stroke-width:0.77029395;stroke-miterlimit:4;stroke-dasharray:none;stroke-opacity:1;paint-order:markers fill stroke"
       id="path5780"
       cx="9.260417"
       cy="90.487488"
       rx="7.5523534"
       ry="7.5523529"
       inkscape:export-filename="/home/eddy/Documents/Development/Personal/connect4-slack/src/assets/classic/latest_piece.png"
       inkscape:export-xdpi="96"
       inkscape:export-ydpi="96" />
  </g>
  <g
     inkscape:groupmode="layer"
     id="layer9"
     inkscape:label="won"
     style="display:inline"
     transform="translate(0,8.7312494)">
    <path
       sodipodi:type="star"
       style="fill:#4587f5;fill-opacity:1;stroke-width:0.26458329"
       id="path949"
       sodipodi:sides="5"
       sodipodi:cx="6.9490061"
       sodipodi:cy="91.239044"
       sodipodi:r1="5.5325427"
       sodipodi:r2="2.7662714"
       sodipodi:arg1="0.92246434"
       sodipodi:arg2="1.5507829"
       inkscape:flatsided="false"
       inkscape:rounded="0"
       inkscape:randomized="0"
       d="m 10.289875,95.648991 -3.28551,-1.644229 -3.217082,1.774385 0.5484764,-3.6328 -2.6816741,-2.511311 3.6244866,-0.600965 1.5597163,-3.326462 1.6915795,3.261384 3.6456313,0.455445 -2.5790326,2.61661 z"
       inkscape:transform-center-x="0.025811362"
       inkscape:transform-center-y="-0.3906407"
       transform="matrix(0.75441365,0,0,0.78811186,4.0438016,18.971559)" />
  </g>
</svg>
