<?xml version="1.0" encoding="UTF-8" standalone="no"?>
<!-- Created with Inkscape (http://www.inkscape.org/) -->

<svg
   xmlns:osb="http://www.openswatchbook.org/uri/2009/osb"
   xmlns:dc="http://purl.org/dc/elements/1.1/"
   xmlns:cc="http://creativecommons.org/ns#"
   xmlns:rdf="http://www.w3.org/1999/02/22-rdf-syntax-ns#"
   xmlns:svg="http://www.w3.org/2000/svg"
   xmlns="http://www.w3.org/2000/svg"
   xmlns:xlink="http://www.w3.org/1999/xlink"
   xmlns:sodipodi="http://sodipodi.sourceforge.net/DTD/sodipodi-0.dtd"
   xmlns:inkscape="http://www.inkscape.org/namespaces/inkscape"
   width="438"
   height="415"
   viewBox="0 0 115.8875 109.80204"
   version="1.1"
   id="svg8"
   inkscape:version="0.92.2 5c3e80d, 2017-08-06"
   sodipodi:docname="classic.svg"
   inkscape:export-filename="/home/eddy/Documents/Development/Personal/connect4-slack/src/assets/classic/player2.png"
   inkscape:export-xdpi="96"
   inkscape:export-ydpi="96">
  <defs
     id="defs2">
    <linearGradient
       id="linearGradient5800"
       osb:paint="solid">
      <stop
         style="stop-color:#79d9d8;stop-opacity:1;"
         offset="0"
         id="stop5798" />
    </linearGradient>
    <clipPath
       clipPathUnits="userSpaceOnUse"
       id="clipPath141">
      <g
         id="use143"
         inkscape:label="Clip">
        <circle
           style="fill:#ffffff;stroke-width:0.13229167"
           id="circle914"
           cx="9.5250006"
           cy="90.222916"
           r="6.6145835" />
        <circle
           style="fill:#ffffff;stroke-width:0.13229167"
           id="circle916"
           cx="25.664583"
           cy="90.222916"
           r="6.6145835" />
        <circle
           style="fill:#ffffff;stroke-width:0.13229167"
           id="circle918"
           cx="41.804169"
           cy="90.222916"
           r="6.6145835" />
        <circle
           style="fill:#ffffff;stroke-width:0.13229167"
           id="circle920"
           cx="57.943752"
           cy="90.222916"
           r="6.6145835" />
        <circle
           style="fill:#ffffff;stroke-width:0.13229167"
           id="circle922"
           cx="74.083336"
           cy="90.222916"
           r="6.6145835" />
        <circle
           style="fill:#ffffff;stroke-width:0.13229167"
           id="circle924"
           cx="90.222916"
           cy="90.222916"
           r="6.6145835" />
        <circle
           style="fill:#ffffff;stroke-width:0.13229167"
           id="circle926"
           cx="106.3625"
           cy="90.222916"
           r="6.6145835" />
      </g>
    </clipPath>
    <clipPath
       clipPathUnits="userSpaceOnUse"
       id="clipPath141-6">
      <g
         id="use143-2"
         inkscape:label="Clip">
        <circle
           style="fill:#ffffff;stroke-width:0.13229167"
           id="circle945"
           cx="9.5250006"
           cy="90.222916"
           r="6.6145835" />
        <circle
           style="fill:#ffffff;stroke-width:0.13229167"
           id="circle947"
           cx="25.664583"
           cy="90.222916"
           r="6.6145835" />
        <circle
           style="fill:#ffffff;stroke-width:0.13229167"
           id="circle949"
           cx="41.804169"
           cy="90.222916"
           r="6.6145835" />
        <circle
           style="fill:#ffffff;stroke-width:0.13229167"
           id="circle951"
           cx="57.943752"
           cy="90.222916"
           r="6.6145835" />
        <circle
           style="fill:#ffffff;stroke-width:0.13229167"
           id="circle953"
           cx="74.083336"
           cy="90.222916"
           r="6.6145835" />
        <circle
           style="fill:#ffffff;stroke-width:0.13229167"
           id="circle955"
           cx="90.222916"
           cy="90.222916"
           r="6.6145835" />
        <circle
           style="fill:#ffffff;stroke-width:0.13229167"
           id="circle957"
           cx="106.3625"
           cy="90.222916"
           r="6.6145835" />
      </g>
    </clipPath>
    <clipPath
       clipPathUnits="userSpaceOnUse"
       id="clipPath141-6-2">
      <g
         id="use143-2-6"
         inkscape:label="Clip">
        <circle
           style="fill:#ffffff;stroke-width:0.13229167"
           id="circle976"
           cx="9.5250006"
           cy="90.222916"
           r="6.6145835" />
        <circle
           style="fill:#ffffff;stroke-width:0.13229167"
           id="circle978"
           cx="25.664583"
           cy="90.222916"
           r="6.6145835" />
        <circle
           style="fill:#ffffff;stroke-width:0.13229167"
           id="circle980"
           cx="41.804169"
           cy="90.222916"
           r="6.6145835" />
        <circle
           style="fill:#ffffff;stroke-width:0.13229167"
           id="circle982"
           cx="57.943752"
           cy="90.222916"
           r="6.6145835" />
        <circle
           style="fill:#ffffff;stroke-width:0.13229167"
           id="circle984"
           cx="74.083336"
           cy="90.222916"
           r="6.6145835" />
        <circle
           style="fill:#ffffff;stroke-width:0.13229167"
           id="circle986"
           cx="90.222916"
           cy="90.222916"
           r="6.6145835" />
        <circle
           style="fill:#ffffff;stroke-width:0.13229167"
           id="circle988"
           cx="106.3625"
           cy="90.222916"
           r="6.6145835" />
      </g>
    </clipPath>
    <clipPath
       clipPathUnits="userSpaceOnUse"
       id="clipPath141-6-2-5">
      <g
         id="use143-2-6-9"
         inkscape:label="Clip">
        <circle
           style="fill:#ffffff;stroke-width:0.13229167"
           id="circle1007"
           cx="9.5250006"
           cy="90.222916"
           r="6.6145835" />
        <circle
           style="fill:#ffffff;stroke-width:0.13229167"
           id="circle1009"
           cx="25.664583"
           cy="90.222916"
           r="6.6145835" />
        <circle
           style="fill:#ffffff;stroke-width:0.13229167"
           id="circle1011"
           cx="41.804169"
           cy="90.222916"
           r="6.6145835" />
        <circle
           style="fill:#ffffff;stroke-width:0.13229167"
           id="circle1013"
           cx="57.943752"
           cy="90.222916"
           r="6.6145835" />
        <circle
           style="fill:#ffffff;stroke-width:0.13229167"
           id="circle1015"
           cx="74.083336"
           cy="90.222916"
           r="6.6145835" />
        <circle
           style="fill:#ffffff;stroke-width:0.13229167"
           id="circle1017"
           cx="90.222916"
           cy="90.222916"
           r="6.6145835" />
        <circle
           style="fill:#ffffff;stroke-width:0.13229167"
           id="circle1019"
           cx="106.3625"
           cy="90.222916"
           r="6.6145835" />
      </g>
    </clipPath>
    <clipPath
       clipPathUnits="userSpaceOnUse"
       id="clipPath141-6-2-5-9">
      <g
         id="use143-2-6-9-3"
         inkscape:label="Clip">
        <circle
           style="fill:#ffffff;stroke-width:0.13229167"
           id="circle1038"
           cx="9.5250006"
           cy="90.222916"
           r="6.6145835" />
        <circle
           style="fill:#ffffff;stroke-width:0.13229167"
           id="circle1040"
           cx="25.664583"
           cy="90.222916"
           r="6.6145835" />
        <circle
           style="fill:#ffffff;stroke-width:0.13229167"
           id="circle1042"
           cx="41.804169"
           cy="90.222916"
           r="6.6145835" />
        <circle
           style="fill:#ffffff;stroke-width:0.13229167"
           id="circle1044"
           cx="57.943752"
           cy="90.222916"
           r="6.6145835" />
        <circle
           style="fill:#ffffff;stroke-width:0.13229167"
           id="circle1046"
           cx="74.083336"
           cy="90.222916"
           r="6.6145835" />
        <circle
           style="fill:#ffffff;stroke-width:0.13229167"
           id="circle1048"
           cx="90.222916"
           cy="90.222916"
           r="6.6145835" />
        <circle
           style="fill:#ffffff;stroke-width:0.13229167"
           id="circle1050"
           cx="106.3625"
           cy="90.222916"
           r="6.6145835" />
      </g>
    </clipPath>
    <clipPath
       clipPathUnits="userSpaceOnUse"
       id="clipPath141-6-2-5-9-6">
      <g
         inkscape:label="Clip"
         id="use143-2-6-9-3-1">
        <circle
           r="6.6145835"
           cy="90.222916"
           cx="9.5250006"
           id="circle1061"
           style="fill:#ffffff;stroke-width:0.13229167" />
        <circle
           r="6.6145835"
           cy="90.222916"
           cx="25.664583"
           id="circle1063"
           style="fill:#ffffff;stroke-width:0.13229167" />
        <circle
           r="6.6145835"
           cy="90.222916"
           cx="41.804169"
           id="circle1065"
           style="fill:#ffffff;stroke-width:0.13229167" />
        <circle
           r="6.6145835"
           cy="90.222916"
           cx="57.943752"
           id="circle1067"
           style="fill:#ffffff;stroke-width:0.13229167" />
        <circle
           r="6.6145835"
           cy="90.222916"
           cx="74.083336"
           id="circle1069"
           style="fill:#ffffff;stroke-width:0.13229167" />
        <circle
           r="6.6145835"
           cy="90.222916"
           cx="90.222916"
           id="circle1071"
           style="fill:#ffffff;stroke-width:0.13229167" />
        <circle
           r="6.6145835"
           cy="90.222916"
           cx="106.3625"
           id="circle1073"
           style="fill:#ffffff;stroke-width:0.13229167" />
      </g>
    </clipPath>
    <clipPath
       clipPathUnits="userSpaceOnUse"
       id="clipPath428">
      <g
         inkscape:label="Clip"
         id="use430">
        <g
           clip-path="url(#clipPath141)"
           id="g734">
          <g
             id="g732"
             inkscape:label="Clip">
            <circle
               style="fill:#ffffff;stroke-width:0.13229167"
               id="circle718"
               cx="9.5250006"
               cy="90.222916"
               r="6.6145835" />
            <circle
               style="fill:#ffffff;stroke-width:0.13229167"
               id="circle720"
               cx="25.664583"
               cy="90.222916"
               r="6.6145835" />
            <circle
               style="fill:#ffffff;stroke-width:0.13229167"
               id="circle722"
               cx="41.804169"
               cy="90.222916"
               r="6.6145835" />
            <circle
               style="fill:#ffffff;stroke-width:0.13229167"
               id="circle724"
               cx="57.943752"
               cy="90.222916"
               r="6.6145835" />
            <circle
               style="fill:#ffffff;stroke-width:0.13229167"
               id="circle726"
               cx="74.083336"
               cy="90.222916"
               r="6.6145835" />
            <circle
               style="fill:#ffffff;stroke-width:0.13229167"
               id="circle728"
               cx="90.222916"
               cy="90.222916"
               r="6.6145835" />
            <circle
               style="fill:#ffffff;stroke-width:0.13229167"
               id="circle730"
               cx="106.3625"
               cy="90.222916"
               r="6.6145835" />
          </g>
        </g>
        <g
           clip-path="url(#clipPath141-6)"
           id="g752"
           transform="translate(-3.792182e-7,-16.139582)">
          <g
             id="g750"
             inkscape:label="Clip">
            <circle
               style="fill:#ffffff;stroke-width:0.13229167"
               id="circle736"
               cx="9.5250006"
               cy="90.222916"
               r="6.6145835" />
            <circle
               style="fill:#ffffff;stroke-width:0.13229167"
               id="circle738"
               cx="25.664583"
               cy="90.222916"
               r="6.6145835" />
            <circle
               style="fill:#ffffff;stroke-width:0.13229167"
               id="circle740"
               cx="41.804169"
               cy="90.222916"
               r="6.6145835" />
            <circle
               style="fill:#ffffff;stroke-width:0.13229167"
               id="circle742"
               cx="57.943752"
               cy="90.222916"
               r="6.6145835" />
            <circle
               style="fill:#ffffff;stroke-width:0.13229167"
               id="circle744"
               cx="74.083336"
               cy="90.222916"
               r="6.6145835" />
            <circle
               style="fill:#ffffff;stroke-width:0.13229167"
               id="circle746"
               cx="90.222916"
               cy="90.222916"
               r="6.6145835" />
            <circle
               style="fill:#ffffff;stroke-width:0.13229167"
               id="circle748"
               cx="106.3625"
               cy="90.222916"
               r="6.6145835" />
          </g>
        </g>
        <g
           clip-path="url(#clipPath141-6-2)"
           id="g770"
           transform="translate(-3.792182e-7,-32.279165)">
          <g
             id="g768"
             inkscape:label="Clip">
            <circle
               style="fill:#ffffff;stroke-width:0.13229167"
               id="circle754"
               cx="9.5250006"
               cy="90.222916"
               r="6.6145835" />
            <circle
               style="fill:#ffffff;stroke-width:0.13229167"
               id="circle756"
               cx="25.664583"
               cy="90.222916"
               r="6.6145835" />
            <circle
               style="fill:#ffffff;stroke-width:0.13229167"
               id="circle758"
               cx="41.804169"
               cy="90.222916"
               r="6.6145835" />
            <circle
               style="fill:#ffffff;stroke-width:0.13229167"
               id="circle760"
               cx="57.943752"
               cy="90.222916"
               r="6.6145835" />
            <circle
               style="fill:#ffffff;stroke-width:0.13229167"
               id="circle762"
               cx="74.083336"
               cy="90.222916"
               r="6.6145835" />
            <circle
               style="fill:#ffffff;stroke-width:0.13229167"
               id="circle764"
               cx="90.222916"
               cy="90.222916"
               r="6.6145835" />
            <circle
               style="fill:#ffffff;stroke-width:0.13229167"
               id="circle766"
               cx="106.3625"
               cy="90.222916"
               r="6.6145835" />
          </g>
        </g>
        <g
           clip-path="url(#clipPath141-6-2-5)"
           id="g788"
           transform="translate(-3.792182e-7,-48.418749)">
          <g
             id="g786"
             inkscape:label="Clip">
            <circle
               style="fill:#ffffff;stroke-width:0.13229167"
               id="circle772"
               cx="9.5250006"
               cy="90.222916"
               r="6.6145835" />
            <circle
               style="fill:#ffffff;stroke-width:0.13229167"
               id="circle774"
               cx="25.664583"
               cy="90.222916"
               r="6.6145835" />
            <circle
               style="fill:#ffffff;stroke-width:0.13229167"
               id="circle776"
               cx="41.804169"
               cy="90.222916"
               r="6.6145835" />
            <circle
               style="fill:#ffffff;stroke-width:0.13229167"
               id="circle778"
               cx="57.943752"
               cy="90.222916"
               r="6.6145835" />
            <circle
               style="fill:#ffffff;stroke-width:0.13229167"
               id="circle780"
               cx="74.083336"
               cy="90.222916"
               r="6.6145835" />
            <circle
               style="fill:#ffffff;stroke-width:0.13229167"
               id="circle782"
               cx="90.222916"
               cy="90.222916"
               r="6.6145835" />
            <circle
               style="fill:#ffffff;stroke-width:0.13229167"
               id="circle784"
               cx="106.3625"
               cy="90.222916"
               r="6.6145835" />
          </g>
        </g>
        <g
           clip-path="url(#clipPath141-6-2-5-9)"
           id="g806"
           transform="translate(-3.792182e-7,-64.558332)">
          <g
             id="g804"
             inkscape:label="Clip">
            <circle
               style="fill:#ffffff;stroke-width:0.13229167"
               id="circle790"
               cx="9.5250006"
               cy="90.222916"
               r="6.6145835" />
            <circle
               style="fill:#ffffff;stroke-width:0.13229167"
               id="circle792"
               cx="25.664583"
               cy="90.222916"
               r="6.6145835" />
            <circle
               style="fill:#ffffff;stroke-width:0.13229167"
               id="circle794"
               cx="41.804169"
               cy="90.222916"
               r="6.6145835" />
            <circle
               style="fill:#ffffff;stroke-width:0.13229167"
               id="circle796"
               cx="57.943752"
               cy="90.222916"
               r="6.6145835" />
            <circle
               style="fill:#ffffff;stroke-width:0.13229167"
               id="circle798"
               cx="74.083336"
               cy="90.222916"
               r="6.6145835" />
            <circle
               style="fill:#ffffff;stroke-width:0.13229167"
               id="circle800"
               cx="90.222916"
               cy="90.222916"
               r="6.6145835" />
            <circle
               style="fill:#ffffff;stroke-width:0.13229167"
               id="circle802"
               cx="106.3625"
               cy="90.222916"
               r="6.6145835" />
          </g>
        </g>
        <g
           clip-path="url(#clipPath141-6-2-5-9-6)"
           id="g824"
           transform="translate(-3.792182e-7,-80.697916)">
          <g
             id="g822"
             inkscape:label="Clip">
            <circle
               style="fill:#ffffff;stroke-width:0.13229167"
               id="circle808"
               cx="9.5250006"
               cy="90.222916"
               r="6.6145835" />
            <circle
               style="fill:#ffffff;stroke-width:0.13229167"
               id="circle810"
               cx="25.664583"
               cy="90.222916"
               r="6.6145835" />
            <circle
               style="fill:#ffffff;stroke-width:0.13229167"
               id="circle812"
               cx="41.804169"
               cy="90.222916"
               r="6.6145835" />
            <circle
               style="fill:#ffffff;stroke-width:0.13229167"
               id="circle814"
               cx="57.943752"
               cy="90.222916"
               r="6.6145835" />
            <circle
               style="fill:#ffffff;stroke-width:0.13229167"
               id="circle816"
               cx="74.083336"
               cy="90.222916"
               r="6.6145835" />
            <circle
               style="fill:#ffffff;stroke-width:0.13229167"
               id="circle818"
               cx="90.222916"
               cy="90.222916"
               r="6.6145835" />
            <circle
               style="fill:#ffffff;stroke-width:0.13229167"
               id="circle820"
               cx="106.3625"
               cy="90.222916"
               r="6.6145835" />
          </g>
        </g>
      </g>
    </clipPath>
    <linearGradient
       inkscape:collect="always"
       xlink:href="#linearGradient5800"
       id="linearGradient5802"
       x1="-15.156846"
       y1="78.959229"
       x2="-1.1906253"
       y2="78.959229"
       gradientUnits="userSpaceOnUse"
       gradientTransform="matrix(1.1024015,0,0,1.1753545,18.535738,-2.5821617)" />
  </defs>
  <sodipodi:namedview
     id="base"
     pagecolor="#ffffff"
     bordercolor="#666666"
     borderopacity="1.0"
     inkscape:pageopacity="0.0"
     inkscape:pageshadow="2"
     inkscape:zoom="1.979899"
     inkscape:cx="154.98404"
     inkscape:cy="296.26351"
     inkscape:document-units="px"
     inkscape:current-layer="layer6"
     showgrid="false"
     units="px"
     inkscape:window-width="1317"
     inkscape:window-height="901"
     inkscape:window-x="1863"
     inkscape:window-y="276"
     inkscape:window-maximized="0"
     inkscape:pagecheckerboard="true" />
  <metadata
     id="metadata5">
    <rdf:RDF>
      <cc:Work
         rdf:about="">
        <dc:format>image/svg+xml</dc:format>
        <dc:type
           rdf:resource="http://purl.org/dc/dcmitype/StillImage" />
        <dc:title></dc:title>
      </cc:Work>
    </rdf:RDF>
  </metadata>
  <g
     inkscape:label="board"
     inkscape:groupmode="layer"
     id="layer1"
     transform="translate(0,-187.19794)"
     style="display:inline"
     sodipodi:insensitive="true">
    <path
       style="fill:#0000ff;stroke-width:0.99999994"
       d="M 0,0 V 377 H 438 V 0 Z M 36,11 A 25,25 0 0 1 61,36 25,25 0 0 1 36,61 25,25 0 0 1 11,36 25,25 0 0 1 36,11 Z m 61,0 A 25,25 0 0 1 122,36 25,25 0 0 1 97,61 25,25 0 0 1 72,36 25,25 0 0 1 97,11 Z m 61,0 a 25,25 0 0 1 25,25 25,25 0 0 1 -25,25 25,25 0 0 1 -25,-25 25,25 0 0 1 25,-25 z m 61,0 a 25,25 0 0 1 25,25 25,25 0 0 1 -25,25 25,25 0 0 1 -25,-25 25,25 0 0 1 25,-25 z m 61,0 a 25,25 0 0 1 25,25 25,25 0 0 1 -25,25 25,25 0 0 1 -25,-25 25,25 0 0 1 25,-25 z m 61,0 a 25,25 0 0 1 25,25 25,25 0 0 1 -25,25 25,25 0 0 1 -25,-25 25,25 0 0 1 25,-25 z m 61,0 A 25,25 0 0 1 427,36 25,25 0 0 1 402,61 25,25 0 0 1 377,36 25,25 0 0 1 402,11 Z M 36,72 A 25,25 0 0 1 61,97 25,25 0 0 1 36,122 25,25 0 0 1 11,97 25,25 0 0 1 36,72 Z m 61,0 A 25,25 0 0 1 122,97 25,25 0 0 1 97,122 25,25 0 0 1 72,97 25,25 0 0 1 97,72 Z m 61,0 a 25,25 0 0 1 25,25 25,25 0 0 1 -25,25 25,25 0 0 1 -25,-25 25,25 0 0 1 25,-25 z m 61,0 a 25,25 0 0 1 25,25 25,25 0 0 1 -25,25 25,25 0 0 1 -25,-25 25,25 0 0 1 25,-25 z m 61,0 a 25,25 0 0 1 25,25 25,25 0 0 1 -25,25 25,25 0 0 1 -25,-25 25,25 0 0 1 25,-25 z m 61,0 a 25,25 0 0 1 25,25 25,25 0 0 1 -25,25 25,25 0 0 1 -25,-25 25,25 0 0 1 25,-25 z m 61,0 a 25,25 0 0 1 25,25 25,25 0 0 1 -25,25 25,25 0 0 1 -25,-25 25,25 0 0 1 25,-25 z M 36,133 a 25,25 0 0 1 25,25 25,25 0 0 1 -25,25 25,25 0 0 1 -25,-25 25,25 0 0 1 25,-25 z m 61,0 a 25,25 0 0 1 25,25 25,25 0 0 1 -25,25 25,25 0 0 1 -25,-25 25,25 0 0 1 25,-25 z m 61,0 a 25,25 0 0 1 25,25 25,25 0 0 1 -25,25 25,25 0 0 1 -25,-25 25,25 0 0 1 25,-25 z m 61,0 a 25,25 0 0 1 25,25 25,25 0 0 1 -25,25 25,25 0 0 1 -25,-25 25,25 0 0 1 25,-25 z m 61,0 a 25,25 0 0 1 25,25 25,25 0 0 1 -25,25 25,25 0 0 1 -25,-25 25,25 0 0 1 25,-25 z m 61,0 a 25,25 0 0 1 25,25 25,25 0 0 1 -25,25 25,25 0 0 1 -25,-25 25,25 0 0 1 25,-25 z m 61,0 a 25,25 0 0 1 25,25 25,25 0 0 1 -25,25 25,25 0 0 1 -25,-25 25,25 0 0 1 25,-25 z M 36,194 a 25,25 0 0 1 25,25 25,25 0 0 1 -25,25 25,25 0 0 1 -25,-25 25,25 0 0 1 25,-25 z m 61,0 a 25,25 0 0 1 25,25 25,25 0 0 1 -25,25 25,25 0 0 1 -25,-25 25,25 0 0 1 25,-25 z m 61,0 a 25,25 0 0 1 25,25 25,25 0 0 1 -25,25 25,25 0 0 1 -25,-25 25,25 0 0 1 25,-25 z m 61,0 a 25,25 0 0 1 25,25 25,25 0 0 1 -25,25 25,25 0 0 1 -25,-25 25,25 0 0 1 25,-25 z m 61,0 a 25,25 0 0 1 25,25 25,25 0 0 1 -25,25 25,25 0 0 1 -25,-25 25,25 0 0 1 25,-25 z m 61,0 a 25,25 0 0 1 25,25 25,25 0 0 1 -25,25 25,25 0 0 1 -25,-25 25,25 0 0 1 25,-25 z m 61,0 a 25,25 0 0 1 25,25 25,25 0 0 1 -25,25 25,25 0 0 1 -25,-25 25,25 0 0 1 25,-25 z M 36,255 a 25,25 0 0 1 25,25 25,25 0 0 1 -25,25 25,25 0 0 1 -25,-25 25,25 0 0 1 25,-25 z m 61,0 a 25,25 0 0 1 25,25 25,25 0 0 1 -25,25 25,25 0 0 1 -25,-25 25,25 0 0 1 25,-25 z m 61,0 a 25,25 0 0 1 25,25 25,25 0 0 1 -25,25 25,25 0 0 1 -25,-25 25,25 0 0 1 25,-25 z m 61,0 a 25,25 0 0 1 25,25 25,25 0 0 1 -25,25 25,25 0 0 1 -25,-25 25,25 0 0 1 25,-25 z m 61,0 a 25,25 0 0 1 25,25 25,25 0 0 1 -25,25 25,25 0 0 1 -25,-25 25,25 0 0 1 25,-25 z m 61,0 a 25,25 0 0 1 25,25 25,25 0 0 1 -25,25 25,25 0 0 1 -25,-25 25,25 0 0 1 25,-25 z m 61,0 a 25,25 0 0 1 25,25 25,25 0 0 1 -25,25 25,25 0 0 1 -25,-25 25,25 0 0 1 25,-25 z M 36,316 a 25,25 0 0 1 25,25 25,25 0 0 1 -25,25 25,25 0 0 1 -25,-25 25,25 0 0 1 25,-25 z m 61,0 a 25,25 0 0 1 25,25 25,25 0 0 1 -25,25 25,25 0 0 1 -25,-25 25,25 0 0 1 25,-25 z m 61,0 a 25,25 0 0 1 25,25 25,25 0 0 1 -25,25 25,25 0 0 1 -25,-25 25,25 0 0 1 25,-25 z m 61,0 a 25,25 0 0 1 25,25 25,25 0 0 1 -25,25 25,25 0 0 1 -25,-25 25,25 0 0 1 25,-25 z m 61,0 a 25,25 0 0 1 25,25 25,25 0 0 1 -25,25 25,25 0 0 1 -25,-25 25,25 0 0 1 25,-25 z m 61,0 a 25,25 0 0 1 25,25 25,25 0 0 1 -25,25 25,25 0 0 1 -25,-25 25,25 0 0 1 25,-25 z m 61,0 a 25,25 0 0 1 25,25 25,25 0 0 1 -25,25 25,25 0 0 1 -25,-25 25,25 0 0 1 25,-25 z"
       id="rect10"
       transform="matrix(0.26458334,0,0,0.26458334,0,197.25206)"
       inkscape:connector-curvature="0" />
  </g>
  <g
     inkscape:groupmode="layer"
     id="layer6"
     inkscape:label="numbers"
     style="display:inline"
     transform="translate(0,10.054166)">
    <text
       xml:space="preserve"
       style="font-style:normal;font-weight:normal;font-size:10.58333397px;line-height:1.25;font-family:sans-serif;letter-spacing:0px;word-spacing:0px;fill:#4587f5;fill-opacity:1;stroke:none;stroke-width:0.26458335;paint-order:fill markers stroke;"
       x="6.2366085"
       y="-1.0583314"
       id="text1197"><tspan
         sodipodi:role="line"
         id="tspan1195"
         x="6.2366085"
         y="-1.0583314"
         style="stroke-width:0.26458335;paint-order:fill markers stroke;fill:#4587f5;fill-opacity:1;">1</tspan></text>
    <text
       xml:space="preserve"
       style="font-style:normal;font-weight:normal;font-size:10.58333397px;line-height:1.25;font-family:sans-serif;letter-spacing:0px;word-spacing:0px;fill:#4587f5;fill-opacity:1;stroke:none;stroke-width:0.26458335;"
       x="22.111609"
       y="-1.0583314"
       id="text1201"><tspan
         sodipodi:role="line"
         id="tspan1199"
         x="22.111609"
         y="-1.0583314"
         style="stroke-width:0.26458335;fill:#4587f5;fill-opacity:1;">2</tspan></text>
    <text
       xml:space="preserve"
       style="font-style:normal;font-weight:normal;font-size:10.58333397px;line-height:1.25;font-family:sans-serif;letter-spacing:0px;word-spacing:0px;fill:#4587f5;fill-opacity:1;stroke:none;stroke-width:0.26458335;"
       x="38.515778"
       y="-1.2081937"
       id="text1205"><tspan
         sodipodi:role="line"
         id="tspan1203"
         x="38.515778"
         y="-1.2081937"
         style="stroke-width:0.26458335;fill:#4587f5;fill-opacity:1;">3</tspan></text>
    <text
       xml:space="preserve"
       style="font-style:normal;font-weight:normal;font-size:10.58333397px;line-height:1.25;font-family:sans-serif;letter-spacing:0px;word-spacing:0px;fill:#4587f5;fill-opacity:1;stroke:none;stroke-width:0.26458335;"
       x="54.012798"
       y="-1.0583314"
       id="text1209"><tspan
         sodipodi:role="line"
         id="tspan1207"
         x="54.012798"
         y="-1.0583314"
         style="stroke-width:0.26458335;fill:#4587f5;fill-opacity:1;">4</tspan></text>
    <text
       xml:space="preserve"
       style="font-style:normal;font-weight:normal;font-size:10.58333397px;line-height:1.25;font-family:sans-serif;letter-spacing:0px;word-spacing:0px;fill:#4587f5;fill-opacity:1;stroke:none;stroke-width:0.26458335;"
       x="70.530357"
       y="-1.2081937"
       id="text1213"><tspan
         sodipodi:role="line"
         id="tspan1211"
         x="70.530357"
         y="-1.2081937"
         style="stroke-width:0.26458335;fill:#4587f5;fill-opacity:1;">5</tspan></text>
    <text
       xml:space="preserve"
       style="font-style:normal;font-weight:normal;font-size:10.58333397px;line-height:1.25;font-family:sans-serif;letter-spacing:0px;word-spacing:0px;fill:#4587f5;fill-opacity:1;stroke:none;stroke-width:0.26458335;"
       x="86.783333"
       y="-1.2081937"
       id="text1217"><tspan
         sodipodi:role="line"
         id="tspan1215"
         x="86.783333"
         y="-1.2081937"
         style="stroke-width:0.26458335;fill:#4587f5;fill-opacity:1;">6</tspan></text>
    <text
       xml:space="preserve"
       style="font-style:normal;font-weight:normal;font-size:10.58333397px;line-height:1.25;font-family:sans-serif;letter-spacing:0px;word-spacing:0px;fill:#4587f5;fill-opacity:1;stroke:none;stroke-width:0.26458335;"
       x="103.1497"
       y="-1.0583314"
       id="text1221"><tspan
         sodipodi:role="line"
         id="tspan1219"
         x="103.1497"
         y="-1.0583314"
         style="stroke-width:0.26458335;fill:#4587f5;fill-opacity:1;">7</tspan></text>
  </g>
  <g
     inkscape:groupmode="layer"
     id="layer4"
     inkscape:label="player1"
     style="display:inline"
     sodipodi:insensitive="true"
     transform="translate(0,10.054166)">
    <circle
       style="fill:#ff0000;stroke-width:0.16194122"
       id="path1189"
       cx="9.5250006"
       cy="90.222916"
       r="6.6145835" />
  </g>
  <g
     inkscape:groupmode="layer"
     id="layer5"
     inkscape:label="player2"
     style="display:inline"
     sodipodi:insensitive="true"
     transform="translate(0,10.054166)">
    <circle
       style="fill:#ffd42a;stroke-width:0.1649051"
       id="path1192"
       cx="25.664583"
       cy="90.222916"
       r="6.6145835" />
  </g>
  <g
     inkscape:groupmode="layer"
     id="layer8"
     inkscape:label="latest_move"
     style="display:inline"
     sodipodi:insensitive="true"
     transform="translate(0,10.054166)">
    <ellipse
       style="opacity:1;fill:none;stroke:url(#linearGradient5802);stroke-width:0.77029395;stroke-miterlimit:4;stroke-dasharray:none;stroke-opacity:1;paint-order:markers fill stroke"
       id="path5780"
       cx="9.5250006"
       cy="90.222916"
       rx="7.5523534"
       ry="7.5523529"
       inkscape:export-filename="/home/eddy/Documents/Development/Personal/connect4-slack/src/assets/classic/latest_piece.png"
       inkscape:export-xdpi="96"
       inkscape:export-ydpi="96" />
  </g>
  <g
     inkscape:groupmode="layer"
     id="layer9"
     inkscape:label="won"
     style="display:inline"
     sodipodi:insensitive="true"
     transform="translate(0,10.054166)">
    <circle
       style="opacity:1;fill:#00bb36;fill-opacity:1;stroke:none;stroke-width:0.60152876;stroke-miterlimit:4;stroke-dasharray:none;stroke-opacity:1;paint-order:markers fill stroke"
       id="path5813"
       cx="25.664583"
       cy="90.222916"
       r="3.3072917"
       inkscape:export-filename="/home/eddy/Documents/Development/Personal/connect4-slack/src/assets/classic/won.png"
       inkscape:export-xdpi="96"
       inkscape:export-ydpi="96" />
  </g>
</svg>
